<?xml version="1.0"?>
<svg xmlns="http://www.w3.org/2000/svg" id="Capa_1" enable-background="new 0 0 512 512" height="512px" viewBox="0 0 512 512" width="512px" class=""><g><g><path d="m504.485 472.543h-34.537v-35.864c0-4.15-3.364-7.515-7.515-7.515s-7.515 3.365-7.515 7.515v35.864h-67.544v-302.042c0-1.381 1.124-2.505 2.505-2.505h62.534c1.381 0 2.505 1.124 2.505 2.505v236.12c0 4.15 3.365 7.515 7.515 7.515s7.515-3.365 7.515-7.515v-236.12c0-9.668-7.866-17.534-17.534-17.534h-23.753v-42.518h74.667c5.682.178 9.526-6.663 6.418-11.423l-15.521-25.491 15.521-25.49c3.108-4.761-.737-11.601-6.418-11.423h-74.667v-4.679c0-4.15-3.364-7.515-7.515-7.515-4.15 0-7.515 3.365-7.515 7.515v121.024h-23.751c-9.668 0-17.534 7.866-17.534 17.534v37.355c-.82-.118-1.652-.2-2.505-.2h-62.534c-9.668 0-17.534 7.866-17.534 17.534v37.355c-.82-.118-1.652-.2-2.505-.2h-62.534c-9.668 0-17.534 7.866-17.534 17.534v37.355c-.82-.118-1.652-.2-2.505-.2h-62.535c-9.668 0-17.534 7.866-17.534 17.534v37.355c-.82-.118-1.652-.2-2.505-.2h-62.535c-9.668 0-17.534 7.866-17.534 17.534v83.287h-34.537c-4.15 0-7.515 3.364-7.515 7.515 0 4.15 3.365 7.515 7.515 7.515h496.971c4.15 0 7.515-3.365 7.515-7.515-.001-4.151-3.366-7.516-7.516-7.516zm-14.531-420.892-10.945 17.975c-1.462 2.401-1.462 5.416 0 7.817l10.946 17.976h-61.294v-43.768zm-267.726 228.227c0-1.381 1.124-2.505 2.505-2.505h62.534c1.381 0 2.505 1.124 2.505 2.505v59.664c0 4.15 3.365 7.515 7.515 7.515s7.515-3.365 7.515-7.515v-114.353c0-1.381 1.124-2.505 2.505-2.505h62.534c1.381 0 2.505 1.124 2.505 2.505v247.354h-67.544v-102.942c0-4.15-3.365-7.515-7.515-7.515s-7.515 3.365-7.515 7.515v102.942h-67.544zm-165.147 109.378c0-1.381 1.124-2.505 2.505-2.505h62.534c1.381 0 2.505 1.124 2.505 2.505v25.362c0 4.15 3.365 7.515 7.515 7.515s7.515-3.365 7.515-7.515v-80.05c0-1.381 1.124-2.505 2.505-2.505h62.534c1.381 0 2.505 1.124 2.505 2.505v137.976h-67.544v-27.867c0-4.15-3.365-7.515-7.515-7.515s-7.515 3.365-7.515 7.515v27.867h-67.544z" data-original="#000000" class="active-path" data-old_color="#000000" fill="#1C5F9D"/></g></g> </svg>
