<?xml version="1.0"?>
<svg xmlns="http://www.w3.org/2000/svg" id="Layer_2" data-name="Layer 2" viewBox="0 0 64 64" width="512px" height="512px" class=""><g><path d="M60,10H54a8,8,0,0,0-4.3-4,1,1,0,0,0-1.29.56L47,10H32.87L31.56,6.58A1,1,0,0,0,30.26,6,8,8,0,0,0,26,10H4a1,1,0,0,0-1,1v4a1,1,0,0,0,1,1,2,2,0,0,1,0,4,1,1,0,0,0-1,1v3a1,1,0,0,0,1,1,2,2,0,0,1,0,4,1,1,0,0,0-1,1v3a1,1,0,0,0,1,1,2,2,0,0,1,0,4,1,1,0,0,0-1,1v4a1,1,0,0,0,1,1H28.24a1,1,0,0,0,.78-.38,47.74,47.74,0,0,0,4.3-7.71c0,.11,3.74,9.62,3.51,9l-.92,2.15a8,8,0,1,0,2.74,9.37L40,53c1,2,1.33,6,5.57,7.84a8,8,0,1,0,.31-14.78,7.76,7.76,0,0,0-1.81,1l-.91-2.15.39-1V44H60a1,1,0,0,0,1-1V39a1,1,0,0,0-1-1,2,2,0,0,1,0-4,1,1,0,0,0,1-1V30a1,1,0,0,0-1-1,2,2,0,0,1,0-4,1,1,0,0,0,1-1V21a1,1,0,0,0-1-1,2,2,0,0,1,0-4,1,1,0,0,0,1-1V11A1,1,0,0,0,60,10ZM30.08,8.32,30.73,10H28.29A6,6,0,0,1,30.08,8.32ZM27.74,42H5V39.87a4,4,0,0,0,0-7.74V30.87a4,4,0,0,0,0-7.74V21.87a4,4,0,0,0,0-7.74V12H46.24l-3.93,9.83L41,17.69a1,1,0,0,0-1.88-.06C39,17.83,31.31,37,27.74,42ZM39.82,28.06l-1.39-3.62c.57-1.35,1.07-2.56,1.47-3.54l1.25,3.82Zm-2.52-1,1.43,3.71-2.67,6.66-1.57-4C35.47,31.3,36.43,29.11,37.3,27.08Zm-.51,28.63a6,6,0,1,1-1.23-6.29,1,1,0,0,0,1.65-.29c1.48-3.69,1.89-3.89,1.63-4.55l-1.71-4.4,6.13-15.34h0v0L49.87,8.31a6,6,0,0,1,2.52,7.33Zm6-6.58a1,1,0,0,0,1.65.29,6,6,0,1,1-1.24,6.29l-2.12-5.44,1.05-2.68ZM59,14.13a4,4,0,0,0,0,7.74v1.26a4,4,0,0,0,0,7.74v1.26a4,4,0,0,0,0,7.74V42H44.27l10-25.63a8,8,0,0,0,.4-4.37H59Z" data-original="#000000" class="active-path" data-old_color="#000000" fill="#1C5F9D"/><path d="M26.54,51.72a4.94,4.94,0,0,0,.08,3.83,5,5,0,1,0-.08-3.83Zm3.57,4.61a3,3,0,1,1,3.83-4A3,3,0,0,1,30.11,56.33Z" data-original="#000000" class="active-path" data-old_color="#000000" fill="#1C5F9D"/><path d="M50.58,58.19a5,5,0,0,0,2.84-6.47,5,5,0,0,0-9.23-.2,4.94,4.94,0,0,0-.08,3.83A5,5,0,0,0,50.58,58.19Zm-1.82-7.66A3,3,0,1,1,46,54.62h0A3,3,0,0,1,48.76,50.53Z" data-original="#000000" class="active-path" data-old_color="#000000" fill="#1C5F9D"/><path d="M17.6,27.05a3.68,3.68,0,1,0-3.68-3.68A3.68,3.68,0,0,0,17.6,27.05Zm0-5.36a1.68,1.68,0,1,1-1.68,1.68A1.68,1.68,0,0,1,17.6,21.69Z" data-original="#000000" class="active-path" data-old_color="#000000" fill="#1C5F9D"/><path d="M24.43,29.6a3.68,3.68,0,1,0,3.68,3.68A3.68,3.68,0,0,0,24.43,29.6Zm0,5.36a1.68,1.68,0,1,1,1.68-1.68A1.68,1.68,0,0,1,24.43,35Z" data-original="#000000" class="active-path" data-old_color="#000000" fill="#1C5F9D"/><rect x="11.71" y="27.34" width="18.32" height="2" transform="translate(-14.33 28.82) rotate(-54.42)" data-original="#000000" class="active-path" data-old_color="#000000" fill="#1C5F9D"/></g> </svg>
