<svg width="152" height="23" viewBox="0 0 152 23" fill="none" xmlns="http://www.w3.org/2000/svg">
<path d="M7.00781 10.3945C5.07812 9.83984 3.67188 9.16016 2.78906 8.35547C1.91406 7.54297 1.47656 6.54297 1.47656 5.35547C1.47656 4.01172 2.01172 2.90234 3.08203 2.02734C4.16016 1.14453 5.55859 0.703125 7.27734 0.703125C8.44922 0.703125 9.49219 0.929688 10.4062 1.38281C11.3281 1.83594 12.0391 2.46094 12.5391 3.25781C13.0469 4.05469 13.3008 4.92578 13.3008 5.87109H11.0391C11.0391 4.83984 10.7109 4.03125 10.0547 3.44531C9.39844 2.85156 8.47266 2.55469 7.27734 2.55469C6.16797 2.55469 5.30078 2.80078 4.67578 3.29297C4.05859 3.77734 3.75 4.45312 3.75 5.32031C3.75 6.01562 4.04297 6.60547 4.62891 7.08984C5.22266 7.56641 6.22656 8.00391 7.64062 8.40234C9.0625 8.80078 10.1719 9.24219 10.9688 9.72656C11.7734 10.2031 12.3672 10.7617 12.75 11.4023C13.1406 12.043 13.3359 12.7969 13.3359 13.6641C13.3359 15.0469 12.7969 16.1562 11.7188 16.9922C10.6406 17.8203 9.19922 18.2344 7.39453 18.2344C6.22266 18.2344 5.12891 18.0117 4.11328 17.5664C3.09766 17.1133 2.3125 16.4961 1.75781 15.7148C1.21094 14.9336 0.9375 14.0469 0.9375 13.0547H3.19922C3.19922 14.0859 3.57812 14.9023 4.33594 15.5039C5.10156 16.0977 6.12109 16.3945 7.39453 16.3945C8.58203 16.3945 9.49219 16.1523 10.125 15.668C10.7578 15.1836 11.0742 14.5234 11.0742 13.6875C11.0742 12.8516 10.7812 12.207 10.1953 11.7539C9.60938 11.293 8.54688 10.8398 7.00781 10.3945ZM20.6461 18H18.4781V5.32031H20.6461V18ZM18.3023 1.95703C18.3023 1.60547 18.4078 1.30859 18.6187 1.06641C18.8375 0.824219 19.1578 0.703125 19.5797 0.703125C20.0016 0.703125 20.3219 0.824219 20.5406 1.06641C20.7594 1.30859 20.8687 1.60547 20.8687 1.95703C20.8687 2.30859 20.7594 2.60156 20.5406 2.83594C20.3219 3.07031 20.0016 3.1875 19.5797 3.1875C19.1578 3.1875 18.8375 3.07031 18.6187 2.83594C18.4078 2.60156 18.3023 2.30859 18.3023 1.95703ZM28.5656 5.32031L28.6242 6.72656C29.5539 5.63281 30.8078 5.08594 32.3859 5.08594C34.1594 5.08594 35.3664 5.76562 36.007 7.125C36.4289 6.51562 36.9758 6.02344 37.6477 5.64844C38.3273 5.27344 39.1281 5.08594 40.05 5.08594C42.8312 5.08594 44.2453 6.55859 44.2922 9.50391V18H42.1242V9.63281C42.1242 8.72656 41.9172 8.05078 41.5031 7.60547C41.0891 7.15234 40.3937 6.92578 39.4172 6.92578C38.6125 6.92578 37.9445 7.16797 37.4133 7.65234C36.882 8.12891 36.5734 8.77344 36.4875 9.58594V18H34.3078V9.69141C34.3078 7.84766 33.4055 6.92578 31.6008 6.92578C30.1789 6.92578 29.2062 7.53125 28.6828 8.74219V18H26.5148V5.32031H28.5656ZM60.6844 11.8008C60.6844 13.7305 60.243 15.2852 59.3602 16.4648C58.4773 17.6445 57.282 18.2344 55.7742 18.2344C54.2352 18.2344 53.0242 17.7461 52.1414 16.7695V22.875H49.9734V5.32031H51.9539L52.0594 6.72656C52.9422 5.63281 54.1688 5.08594 55.7391 5.08594C57.2625 5.08594 58.4656 5.66016 59.3484 6.80859C60.2391 7.95703 60.6844 9.55469 60.6844 11.6016V11.8008ZM58.5164 11.5547C58.5164 10.125 58.2117 8.99609 57.6023 8.16797C56.993 7.33984 56.157 6.92578 55.0945 6.92578C53.782 6.92578 52.7977 7.50781 52.1414 8.67188V14.7305C52.7898 15.8867 53.782 16.4648 55.118 16.4648C56.157 16.4648 56.9813 16.0547 57.5906 15.2344C58.2078 14.4062 58.5164 13.1797 58.5164 11.5547Z" fill="#1C5F9D"/>
<path d="M66.1898 18V0.9375H71.768C73.6195 0.9375 75.0102 1.32031 75.9398 2.08594C76.8773 2.85156 77.3461 3.98438 77.3461 5.48438C77.3461 6.28125 77.1195 6.98828 76.6664 7.60547C76.2133 8.21484 75.5961 8.6875 74.8148 9.02344C75.7367 9.28125 76.4633 9.77344 76.9945 10.5C77.5336 11.2188 77.8031 12.0781 77.8031 13.0781C77.8031 14.6094 77.307 15.8125 76.3148 16.6875C75.3227 17.5625 73.9203 18 72.1078 18H66.1898ZM68.4398 10.0195V16.1602H72.1547C73.2016 16.1602 74.0258 15.8906 74.6273 15.3516C75.2367 14.8047 75.5414 14.0547 75.5414 13.1016C75.5414 11.0469 74.4242 10.0195 72.1898 10.0195H68.4398ZM68.4398 8.21484H71.8383C72.8227 8.21484 73.6078 7.96875 74.1937 7.47656C74.7875 6.98438 75.0844 6.31641 75.0844 5.47266C75.0844 4.53516 74.8109 3.85547 74.2641 3.43359C73.7172 3.00391 72.8852 2.78906 71.768 2.78906H68.4398V8.21484ZM91.0312 16.7461C90.1875 17.7383 88.9492 18.2344 87.3164 18.2344C85.9648 18.2344 84.9336 17.8438 84.2227 17.0625C83.5195 16.2734 83.1641 15.1094 83.1562 13.5703V5.32031H85.3242V13.5117C85.3242 15.4336 86.1055 16.3945 87.668 16.3945C89.3242 16.3945 90.4258 15.7773 90.9727 14.543V5.32031H93.1406V18H91.0781L91.0312 16.7461ZM98.318 11.5547C98.318 9.60938 98.7789 8.04688 99.7008 6.86719C100.623 5.67969 101.83 5.08594 103.322 5.08594C104.806 5.08594 105.982 5.59375 106.849 6.60938V0H109.017V18H107.025L106.92 16.6406C106.052 17.7031 104.845 18.2344 103.298 18.2344C101.83 18.2344 100.63 17.6328 99.7008 16.4297C98.7789 15.2266 98.318 13.6562 98.318 11.7188V11.5547ZM100.486 11.8008C100.486 13.2383 100.783 14.3633 101.377 15.1758C101.97 15.9883 102.791 16.3945 103.838 16.3945C105.213 16.3945 106.216 15.7773 106.849 14.543V8.71875C106.201 7.52344 105.205 6.92578 103.861 6.92578C102.798 6.92578 101.97 7.33594 101.377 8.15625C100.783 8.97656 100.486 10.1914 100.486 11.8008ZM114.277 11.5547C114.277 9.57812 114.734 8.00781 115.648 6.84375C116.562 5.67188 117.773 5.08594 119.28 5.08594C120.827 5.08594 122.034 5.63281 122.902 6.72656L123.007 5.32031H124.988V17.6953C124.988 19.3359 124.499 20.6289 123.523 21.5742C122.554 22.5195 121.249 22.9922 119.609 22.9922C118.695 22.9922 117.8 22.7969 116.925 22.4062C116.05 22.0156 115.382 21.4805 114.921 20.8008L116.046 19.5C116.976 20.6484 118.113 21.2227 119.456 21.2227C120.511 21.2227 121.331 20.9258 121.917 20.332C122.511 19.7383 122.808 18.9023 122.808 17.8242V16.7344C121.941 17.7344 120.757 18.2344 119.257 18.2344C117.773 18.2344 116.57 17.6367 115.648 16.4414C114.734 15.2461 114.277 13.6172 114.277 11.5547ZM116.456 11.8008C116.456 13.2305 116.749 14.3555 117.335 15.1758C117.921 15.9883 118.741 16.3945 119.796 16.3945C121.163 16.3945 122.167 15.7734 122.808 14.5312V8.74219C122.144 7.53125 121.148 6.92578 119.82 6.92578C118.765 6.92578 117.941 7.33594 117.347 8.15625C116.753 8.97656 116.456 10.1914 116.456 11.8008ZM135.93 18.2344C134.212 18.2344 132.813 17.6719 131.735 16.5469C130.657 15.4141 130.118 13.9023 130.118 12.0117V11.6133C130.118 10.3555 130.356 9.23438 130.833 8.25C131.317 7.25781 131.989 6.48438 132.848 5.92969C133.716 5.36719 134.653 5.08594 135.661 5.08594C137.309 5.08594 138.591 5.62891 139.505 6.71484C140.419 7.80078 140.876 9.35547 140.876 11.3789V12.2812H132.286C132.317 13.5312 132.68 14.543 133.376 15.3164C134.079 16.082 134.97 16.4648 136.048 16.4648C136.813 16.4648 137.462 16.3086 137.993 15.9961C138.524 15.6836 138.989 15.2695 139.387 14.7539L140.712 15.7852C139.649 17.418 138.055 18.2344 135.93 18.2344ZM135.661 6.86719C134.786 6.86719 134.052 7.1875 133.458 7.82812C132.864 8.46094 132.497 9.35156 132.356 10.5H138.708V10.3359C138.645 9.23438 138.348 8.38281 137.817 7.78125C137.286 7.17188 136.567 6.86719 135.661 6.86719Z" fill="#CF8414"/>
<path d="M148.737 2.25V5.32031H151.104V6.99609H148.737V14.8594C148.737 15.3672 148.842 15.75 149.053 16.0078C149.264 16.2578 149.623 16.3828 150.131 16.3828C150.381 16.3828 150.725 16.3359 151.163 16.2422V18C150.592 18.1562 150.038 18.2344 149.498 18.2344C148.53 18.2344 147.799 17.9414 147.307 17.3555C146.815 16.7695 146.569 15.9375 146.569 14.8594V6.99609H144.26V5.32031H146.569V2.25H148.737Z" fill="#D27F03"/>
</svg>
