<svg width="127" height="50" viewBox="0 0 127 50" fill="none" xmlns="http://www.w3.org/2000/svg">
<path d="M6.03359 27.6211L6.36172 29.8711L6.84219 27.8438L10.2172 15.9375H12.1156L15.4086 27.8438L15.8773 29.9062L16.2406 27.6094L18.8891 15.9375H21.1508L17.0141 33H14.9633L11.4477 20.5664L11.1781 19.2656L10.9086 20.5664L7.26406 33H5.21328L1.08828 15.9375H3.33828L6.03359 27.6211ZM30.6055 33.2344C28.8867 33.2344 27.4883 32.6719 26.4102 31.5469C25.332 30.4141 24.793 28.9023 24.793 27.0117V26.6133C24.793 25.3555 25.0312 24.2344 25.5078 23.25C25.9922 22.2578 26.6641 21.4844 27.5234 20.9297C28.3906 20.3672 29.3281 20.0859 30.3359 20.0859C31.9844 20.0859 33.2656 20.6289 34.1797 21.7148C35.0937 22.8008 35.5508 24.3555 35.5508 26.3789V27.2812H26.9609C26.9922 28.5312 27.3555 29.543 28.0508 30.3164C28.7539 31.082 29.6445 31.4648 30.7227 31.4648C31.4883 31.4648 32.1367 31.3086 32.668 30.9961C33.1992 30.6836 33.6641 30.2695 34.0625 29.7539L35.3867 30.7852C34.3242 32.418 32.7305 33.2344 30.6055 33.2344ZM30.3359 21.8672C29.4609 21.8672 28.7266 22.1875 28.1328 22.8281C27.5391 23.4609 27.1719 24.3516 27.0312 25.5H33.3828V25.3359C33.3203 24.2344 33.0234 23.3828 32.4922 22.7812C31.9609 22.1719 31.2422 21.8672 30.3359 21.8672Z" fill="white"/>
<path d="M40.8102 33V15.9375H46.3883C48.2398 15.9375 49.6305 16.3203 50.5602 17.0859C51.4977 17.8516 51.9664 18.9844 51.9664 20.4844C51.9664 21.2812 51.7398 21.9883 51.2867 22.6055C50.8336 23.2148 50.2164 23.6875 49.4352 24.0234C50.357 24.2812 51.0836 24.7734 51.6148 25.5C52.1539 26.2188 52.4234 27.0781 52.4234 28.0781C52.4234 29.6094 51.9273 30.8125 50.9352 31.6875C49.943 32.5625 48.5406 33 46.7281 33H40.8102ZM43.0602 25.0195V31.1602H46.775C47.8219 31.1602 48.6461 30.8906 49.2477 30.3516C49.857 29.8047 50.1617 29.0547 50.1617 28.1016C50.1617 26.0469 49.0445 25.0195 46.8102 25.0195H43.0602ZM43.0602 23.2148H46.4586C47.443 23.2148 48.2281 22.9688 48.8141 22.4766C49.4078 21.9844 49.7047 21.3164 49.7047 20.4727C49.7047 19.5352 49.4312 18.8555 48.8844 18.4336C48.3375 18.0039 47.5055 17.7891 46.3883 17.7891H43.0602V23.2148ZM65.6516 31.7461C64.8078 32.7383 63.5695 33.2344 61.9367 33.2344C60.5852 33.2344 59.5539 32.8438 58.843 32.0625C58.1398 31.2734 57.7844 30.1094 57.7766 28.5703V20.3203H59.9445V28.5117C59.9445 30.4336 60.7258 31.3945 62.2883 31.3945C63.9445 31.3945 65.0461 30.7773 65.593 29.543V20.3203H67.7609V33H65.6984L65.6516 31.7461ZM72.9383 26.5547C72.9383 24.6094 73.3992 23.0469 74.3211 21.8672C75.243 20.6797 76.45 20.0859 77.9422 20.0859C79.4266 20.0859 80.6023 20.5938 81.4695 21.6094V15H83.6375V33H81.6453L81.5398 31.6406C80.6727 32.7031 79.4656 33.2344 77.9187 33.2344C76.45 33.2344 75.2508 32.6328 74.3211 31.4297C73.3992 30.2266 72.9383 28.6562 72.9383 26.7188V26.5547ZM75.1062 26.8008C75.1062 28.2383 75.4031 29.3633 75.9969 30.1758C76.5906 30.9883 77.4109 31.3945 78.4578 31.3945C79.8328 31.3945 80.8367 30.7773 81.4695 29.543V23.7188C80.8211 22.5234 79.825 21.9258 78.4812 21.9258C77.4187 21.9258 76.5906 22.3359 75.9969 23.1562C75.4031 23.9766 75.1062 25.1914 75.1062 26.8008ZM88.8969 26.5547C88.8969 24.5781 89.3539 23.0078 90.268 21.8438C91.182 20.6719 92.393 20.0859 93.9008 20.0859C95.4477 20.0859 96.6547 20.6328 97.5219 21.7266L97.6273 20.3203H99.6078V32.6953C99.6078 34.3359 99.1195 35.6289 98.143 36.5742C97.1742 37.5195 95.8695 37.9922 94.2289 37.9922C93.3148 37.9922 92.4203 37.7969 91.5453 37.4062C90.6703 37.0156 90.0023 36.4805 89.5414 35.8008L90.6664 34.5C91.5961 35.6484 92.7328 36.2227 94.0766 36.2227C95.1312 36.2227 95.9516 35.9258 96.5375 35.332C97.1312 34.7383 97.4281 33.9023 97.4281 32.8242V31.7344C96.5609 32.7344 95.3773 33.2344 93.8773 33.2344C92.393 33.2344 91.1898 32.6367 90.268 31.4414C89.3539 30.2461 88.8969 28.6172 88.8969 26.5547ZM91.0766 26.8008C91.0766 28.2305 91.3695 29.3555 91.9555 30.1758C92.5414 30.9883 93.3617 31.3945 94.4164 31.3945C95.7836 31.3945 96.7875 30.7734 97.4281 29.5312V23.7422C96.7641 22.5312 95.768 21.9258 94.4398 21.9258C93.3852 21.9258 92.5609 22.3359 91.9672 23.1562C91.3734 23.9766 91.0766 25.1914 91.0766 26.8008ZM110.551 33.2344C108.832 33.2344 107.434 32.6719 106.355 31.5469C105.277 30.4141 104.738 28.9023 104.738 27.0117V26.6133C104.738 25.3555 104.977 24.2344 105.453 23.25C105.938 22.2578 106.609 21.4844 107.469 20.9297C108.336 20.3672 109.273 20.0859 110.281 20.0859C111.93 20.0859 113.211 20.6289 114.125 21.7148C115.039 22.8008 115.496 24.3555 115.496 26.3789V27.2812H106.906C106.938 28.5312 107.301 29.543 107.996 30.3164C108.699 31.082 109.59 31.4648 110.668 31.4648C111.434 31.4648 112.082 31.3086 112.613 30.9961C113.145 30.6836 113.609 30.2695 114.008 29.7539L115.332 30.7852C114.27 32.418 112.676 33.2344 110.551 33.2344ZM110.281 21.8672C109.406 21.8672 108.672 22.1875 108.078 22.8281C107.484 23.4609 107.117 24.3516 106.977 25.5H113.328V25.3359C113.266 24.2344 112.969 23.3828 112.438 22.7812C111.906 22.1719 111.188 21.8672 110.281 21.8672ZM123.357 17.25V20.3203H125.724V21.9961H123.357V29.8594C123.357 30.3672 123.463 30.75 123.673 31.0078C123.884 31.2578 124.244 31.3828 124.752 31.3828C125.002 31.3828 125.345 31.3359 125.783 31.2422V33C125.213 33.1562 124.658 33.2344 124.119 33.2344C123.15 33.2344 122.42 32.9414 121.927 32.3555C121.435 31.7695 121.189 30.9375 121.189 29.8594V21.9961H118.88V20.3203H121.189V17.25H123.357Z" fill="#CF8414"/>
</svg>
