<?xml version="1.0"?>
<svg xmlns="http://www.w3.org/2000/svg" viewBox="0 0 64 64" width="512px" height="512px" class=""><g><g id="Profit"><path d="M13,60H10a1,1,0,0,0,0,2h3a1,1,0,0,0,0-2Z" data-original="#000000" class="active-path" data-old_color="#000000" fill="#1C5F9D"/><path d="M54,60H41.866l1.9821-12H45a1,1,0,0,0,1-1V43a1,1,0,0,0-1-1H33V40h.6758a9.76,9.76,0,0,0,9.2724-6.6836A.999.999,0,0,0,42,32H40.3242A9.7584,9.7584,0,0,0,33,35.3021V30H53a1,1,0,0,0,1-1V3a1,1,0,0,0-1-1H11a1,1,0,0,0-1,1V29a1,1,0,0,0,1,1H31v5.3021A9.7584,9.7584,0,0,0,23.6758,32H22a.999.999,0,0,0-.9482,1.3164A9.76,9.76,0,0,0,30.3242,40H31v2H19a1,1,0,0,0-1,1v4a1,1,0,0,0,1,1h1.1519L22.134,60H17a1,1,0,0,0,0,2H54a1,1,0,0,0,0-2ZM40.3242,34h.1494a7.764,7.764,0,0,1-6.7978,4h-.1494A7.764,7.764,0,0,1,40.3242,34ZM12,4H52V28H12ZM30.3242,38a7.764,7.764,0,0,1-6.7978-4h.1494a7.764,7.764,0,0,1,6.7978,4ZM20,44H44v2H20Zm4.1611,16L22.1787,48H41.8213L39.8389,60Z" data-original="#000000" class="active-path" data-old_color="#000000" fill="#1C5F9D"/><path d="M25.8359,50.0137a1,1,0,0,0-.8222,1.15l1,6A1,1,0,0,0,26.999,58a.9465.9465,0,0,0,.1651-.0137,1,1,0,0,0,.8222-1.15l-1-6A.9955.9955,0,0,0,25.8359,50.0137Z" data-original="#000000" class="active-path" data-old_color="#000000" fill="#1C5F9D"/><path d="M45,25a4.0039,4.0039,0,0,1,4-4,1,1,0,0,0,1-1V12a1,1,0,0,0-1-1,4.0039,4.0039,0,0,1-4-4,1,1,0,0,0-1-1H20a1,1,0,0,0-1,1,4.0246,4.0246,0,0,1-2.2656,3.6045A3.9448,3.9448,0,0,1,15,11a1,1,0,0,0-1,1v8a1,1,0,0,0,1,1,4.0039,4.0039,0,0,1,4,4,1,1,0,0,0,1,1H44A1,1,0,0,0,45,25ZM20.917,24A6.017,6.017,0,0,0,16,19.083V12.918a5.9532,5.9532,0,0,0,1.6045-.5127A6.0426,6.0426,0,0,0,20.915,8H43.083A6.017,6.017,0,0,0,48,12.917v6.166A6.017,6.017,0,0,0,43.083,24Z" data-original="#000000" class="active-path" data-old_color="#000000" fill="#1C5F9D"/><path d="M33,11.1451V11a1,1,0,0,0-2,0v.1451a2.8436,2.8436,0,0,0-.4219,5.2621l1.9492.9746A.854.854,0,0,1,32.1455,19h-.291A.8561.8561,0,0,1,31,18.1455V18a1,1,0,0,0-2,0v.1455a2.8484,2.8484,0,0,0,2,2.7094V21a1,1,0,0,0,2,0v-.1451a2.8436,2.8436,0,0,0,.4219-5.2621l-1.9492-.9746A.854.854,0,0,1,31.8545,13h.291A.8561.8561,0,0,1,33,13.8545V14a1,1,0,0,0,2,0v-.1455A2.8484,2.8484,0,0,0,33,11.1451Z" data-original="#000000" class="active-path" data-old_color="#000000" fill="#1C5F9D"/></g></g> </svg>
