<?xml version="1.0"?>
<svg xmlns="http://www.w3.org/2000/svg" height="512px" viewBox="0 0 512 512" width="512px" class=""><g><g id="OUTLINE"><path d="m416 360.36084a40.40634 40.40634 0 0 0 -40.36035-40.36084h-64.22022a55.99285 55.99285 0 0 0 -110.83886 0h-64.22022a40.36118 40.36118 0 0 0 -36.09961 58.41064l15.42554 30.85059-.12378.08252.65967.98975 35.77783 71.55468v14.11182h208v-14.11182l35.779-71.55688.65845-.98755-.12354-.08228 15.42627-30.8518a40.5726 40.5726 0 0 0 4.25982-18.04883zm-160-72.36084a40.068 40.068 0 0 1 39.19507 32h-19.19507a27.91194 27.91194 0 0 0 -20 8.43066 27.91194 27.91194 0 0 0 -20-8.43066h-19.19507a40.068 40.068 0 0 1 39.19507-32zm-141.42773 83.25635a24.361 24.361 0 0 1 21.78808-35.25635h99.63965a12 12 0 0 1 0 24h-63.05566a16.00047 16.00047 0 0 0 -15.13868 21.18164l-28.70312 19.13536zm161.42773 4.74365h8.66943c-.12939.13306-.25293.27051-.38427.40186l-5.25586 5.25488a23.84254 23.84254 0 0 0 -7.0293 16.9707v9.37256h-32v-9.37256a23.84142 23.84142 0 0 0 -7.03027-16.97119l-5.25391-5.25391c-.13159-.13159-.25537-.26928-.38477-.40234h8.66895a27.91194 27.91194 0 0 0 20-8.43066 27.91194 27.91194 0 0 0 20 8.43066zm47.05591 32h-35.05591v-9.37256a7.94793 7.94793 0 0 1 2.34277-5.65674l5.25586-5.25488a55.79929 55.79929 0 0 0 8.96337-11.71582h34.49365zm-134.11182 0-15.99975-32h34.49366a55.80781 55.80781 0 0 0 8.96435 11.71631l5.25391 5.2539a7.94677 7.94677 0 0 1 2.34374 5.65723v9.37256zm-52.63061 6.73889 28.584-19.056 6.39209 12.78406a24.03936 24.03936 0 0 0 -19.28957 23.53305v14.11182zm207.68652 65.26111h-176v-48a8.00917 8.00917 0 0 1 8-8h160a8.00917 8.00917 0 0 1 8 8zm-3.28931-71.533 6.39185-12.78406 28.58423 19.056-15.68677 31.37312v-14.11206a24.03892 24.03892 0 0 0 -19.28931-23.533zm56.718-37.21167-14.531 29.06177-28.70337-19.1355a16.00047 16.00047 0 0 0 -15.13866-21.1816h-63.05566a12 12 0 0 1 0-24h99.63965a24.36176 24.36176 0 0 1 21.78906 35.25537z" data-original="#000000" class="active-path" data-old_color="#000000" fill="#1C5F9D"/><path d="m78.82715 140.87939a105.04833 105.04833 0 0 1 62.63867-20.87939 121.01663 121.01663 0 0 0 53.84473-12.71094l30.709-15.35449-29.12012-77.6543-41.80959 11.94532a103.90207 103.90207 0 0 1 -40.21 3.37841l-12.11035-1.3457a121.05776 121.05776 0 0 0 -75.53609 16.59863l-14.20313 8.57813 56.67973 94.28271zm-43.32227-82.32617a104.95517 104.95517 0 0 1 65.49707-14.39258l12.11035 1.34571a119.85134 119.85134 0 0 0 46.37305-3.896l27.61524-7.89062 18.87988 50.3457-17.82617 8.91309a104.92688 104.92688 0 0 1 -46.68848 11.02148 121.23337 121.23337 0 0 0 -67.08789 20.42822l-39.4082-65.55176z" data-original="#000000" class="active-path" data-old_color="#000000" fill="#1C5F9D"/><path d="m60.178 261.72266 13.8679 50.85156 43.50195-3.95459a163.54189 163.54189 0 0 0 94-41.04981l47.06543-42.35888-65.52734-93.61035-33.48828 33.48779c-1.99829 1.99829-4.07276 3.93725-6.19385 5.82519l-13.32471-39.97314-8.8789 6.65967a169.36981 169.36981 0 0 1 -67.9932 30.3999l-49.66211 9.93262 29.09863 87.29687zm110.73413-85.3208 20.00195-20.00245 46.47266 66.38965-36.542 32.88819a147.44044 147.44044 0 0 1 -84.7461 37.00781l-30.14454 2.74072-10.05-36.84814 14.44165-2.88819a184.06237 184.06237 0 0 0 32.81739-9.85424 31.99095 31.99095 0 1 0 40.69946-43.54615l-4.99878-14.9956c4.19184-3.42871 8.23213-7.07546 12.04829-10.8916zm-6.13213 46.01245a15.98608 15.98608 0 1 1 -27.05493 16.80127 183.83105 183.83105 0 0 0 27.05493-16.80127zm-98.4343-38.72486a185.64991 185.64991 0 0 0 65.46387-26.96338l18.74414 56.23393a169.4835 169.4835 0 0 1 -63.34671 27.04l-33.85058 6.77051-18.90134-56.70313z" data-original="#000000" class="active-path" data-old_color="#000000" fill="#1C5F9D"/><path d="m454.25293 213.604a257.44175 257.44175 0 0 1 -112.65234 11.15528l-17.73731-2.21828 30.1211 80.32226 4.07519 1.019a272.83351 272.83351 0 0 0 131.88086 0l7.40039-1.85009-19.27344-96.36617zm-88.25193 75.73536-17.919-47.78272a273.77755 273.77755 0 0 0 111.23145-12.77393l6.61914-2.20654 12.7041 63.521a256.9288 256.9288 0 0 1 -112.63569-.75781z" data-original="#000000" class="active-path" data-old_color="#000000" fill="#1C5F9D"/><path d="m440 448a24 24 0 1 0 24 24 24.02718 24.02718 0 0 0 -24-24zm0 32a8 8 0 1 1 8-8 8.00917 8.00917 0 0 1 -8 8z" data-original="#000000" class="active-path" data-old_color="#000000" fill="#1C5F9D"/><path d="m480 360h-16v16h-16v16h16v16h16v-16h16v-16h-16z" data-original="#000000" class="active-path" data-old_color="#000000" fill="#1C5F9D"/><path d="m88 448h-16v16h-16v16h16v16h16v-16h16v-16h-16z" data-original="#000000" class="active-path" data-old_color="#000000" fill="#1C5F9D"/><path d="m64 400v-16h-16v-16h-16v16h-16v16h16v16h16v-16z" data-original="#000000" class="active-path" data-old_color="#000000" fill="#1C5F9D"/><path d="m331.3252 209.22754a216.99192 216.99192 0 0 0 124.07617-61.31543l44.45019-44.44971-108.64648-90.53808-23.36719 25.96386a199.39173 199.39173 0 0 1 -128.63379 65.15137l-10.74023 1.07422 46.51172 111.627zm48.40527-159.63623 13.06445-14.51563 83.35352 69.46192-32.06153 32.061a200.90674 200.90674 0 0 1 -114.87691 56.76956l-44.18555 5.89112-33.59472-80.62744a215.31214 215.31214 0 0 0 128.30074-69.04053z" data-original="#000000" class="active-path" data-old_color="#000000" fill="#1C5F9D"/><path d="m360 152a24 24 0 1 0 -24-24 24.02718 24.02718 0 0 0 24 24zm0-32a8 8 0 1 1 -8 8 8.00917 8.00917 0 0 1 8-8z" data-original="#000000" class="active-path" data-old_color="#000000" fill="#1C5F9D"/><path d="m392.491 82.823 35.657 29.715-9.805 9.805 11.314 11.314 22.195-22.195-60.343-50.285-21.166 21.166 11.314 11.314z" data-original="#000000" class="active-path" data-old_color="#000000" fill="#1C5F9D"/><path d="m330.53 175.589-5.06-15.178-16.844 5.614-10.464-26.162 9.416-4.708-7.156-14.31-22.584 11.292 21.536 53.838z" data-original="#000000" class="active-path" data-old_color="#000000" fill="#1C5F9D"/><path d="m408 264h24v16h-24z" data-original="#000000" class="active-path" data-old_color="#000000" fill="#1C5F9D"/><path d="m79.351 196h25.298v16h-25.298z" transform="matrix(.949 -.316 .316 .949 -59.799 39.57)" data-original="#000000" class="active-path" data-old_color="#000000" fill="#1C5F9D"/><path d="m112 72h24v16h-24z" data-original="#000000" class="active-path" data-old_color="#000000" fill="#1C5F9D"/></g></g> </svg>
