<?xml version="1.0"?>
<svg xmlns="http://www.w3.org/2000/svg" id="Layer_1" enable-background="new 0 0 512 512" height="512px" viewBox="0 0 512 512" width="512px" class=""><g><path id="XMLID_219_" d="m432.75 0h-302.064c-10.453 0-18.957 8.504-18.957 18.957v21.617h-32.4c-10.496 0-19.035 8.54-19.035 19.036v115.025c0 4.143 3.357 7.5 7.5 7.5s7.5-3.357 7.5-7.5v-115.025c0-2.226 1.811-4.036 4.035-4.036h32.4v309.813c0 1.961.81 3.916 2.196 5.304l96.815 96.815c1.39 1.39 3.338 2.196 5.304 2.196h76.592c4.143 0 7.5-3.357 7.5-7.5s-3.357-7.5-7.5-7.5h-69.092v-77.857c0-10.453-8.505-18.958-18.958-18.958h-77.857v-338.93c0-2.182 1.775-3.957 3.957-3.957h302.064c2.182 0 3.957 1.775 3.957 3.957v431.789c0 2.182-1.775 3.957-3.957 3.957h-104.719c-4.143 0-7.5 3.357-7.5 7.5s3.357 7.5 7.5 7.5h57.24v23.261c0 2.226-1.811 4.036-4.036 4.036h-301.907c-2.225 0-4.035-1.811-4.035-4.036v-282.933c0-4.143-3.357-7.5-7.5-7.5s-7.5 3.357-7.5 7.5v282.933c0 10.496 8.539 19.036 19.035 19.036h301.907c10.496 0 19.036-8.54 19.036-19.036v-23.261h32.479c10.453 0 18.957-8.504 18.957-18.957v-431.789c0-10.453-8.504-18.957-18.957-18.957zm-228.164 372.888c2.183 0 3.958 1.775 3.958 3.958v67.251l-71.209-71.209z" data-original="#000000" class="active-path" data-old_color="#000000" fill="#1C5F9D"/><path id="XMLID_222_" d="m404.507 348.925c4.143 0 7.5-3.357 7.5-7.5s-3.357-7.5-7.5-7.5h-11.803v-83.721c0-9.437-7.677-17.113-17.112-17.113h-12.818c-9.436 0-17.112 7.677-17.112 17.113v83.721h-10.434v-48.025c0-9.437-7.677-17.113-17.113-17.113h-12.817c-9.437 0-17.113 7.677-17.113 17.113v48.024h-20.612v-3.582c0-4.143-3.357-7.5-7.5-7.5s-7.5 3.357-7.5 7.5v11.082c0 4.143 3.357 7.5 7.5 7.5h144.434zm-43.846-98.721c0-1.165.947-2.113 2.112-2.113h12.818c1.165 0 2.112.948 2.112 2.113v83.721h-17.043v-83.721zm-57.477 35.696c0-1.165.948-2.113 2.113-2.113h12.817c1.165 0 2.113.948 2.113 2.113v48.024h-17.044v-48.024z" data-original="#000000" class="active-path" data-old_color="#000000" fill="#1C5F9D"/><path id="XMLID_226_" d="m404.507 374.434h-35.324c-4.143 0-7.5 3.357-7.5 7.5s3.357 7.5 7.5 7.5h35.324c4.143 0 7.5-3.357 7.5-7.5s-3.358-7.5-7.5-7.5z" data-original="#000000" class="active-path" data-old_color="#000000" fill="#1C5F9D"/><path id="XMLID_227_" d="m404.507 404.585h-64.063c-4.143 0-7.5 3.357-7.5 7.5s3.357 7.5 7.5 7.5h64.063c4.143 0 7.5-3.357 7.5-7.5s-3.358-7.5-7.5-7.5z" data-original="#000000" class="active-path" data-old_color="#000000" fill="#1C5F9D"/><path id="XMLID_228_" d="m237.025 153.663c-7.342 0-14.388-1.625-20.942-4.829-3.724-1.818-8.214-.277-10.032 3.444-1.819 3.722-.277 8.213 3.444 10.032 8.623 4.215 17.886 6.353 27.53 6.353 34.621 0 62.787-28.166 62.787-62.786 0-34.602-28.144-62.754-62.746-62.776-.014 0-.026-.002-.04-.002-.013 0-.025.002-.038.002-34.598.02-62.74 28.174-62.74 62.776 0 9.885 2.247 19.364 6.678 28.173 1.86 3.699 6.369 5.191 10.07 3.33 3.7-1.861 5.191-6.37 3.33-10.07-3.37-6.699-5.078-13.91-5.078-21.433 0-23.793 17.484-43.575 40.278-47.184v47.184c0 4.143 3.357 7.5 7.5 7.5h47.193c-3.61 22.799-23.396 40.286-47.194 40.286zm7.501-94.97c20.353 3.222 36.469 19.335 39.693 39.684h-39.693z" data-original="#000000" class="active-path" data-old_color="#000000" fill="#1C5F9D"/><path id="XMLID_231_" d="m170.563 191.592c0 4.143 3.357 7.5 7.5 7.5h27.534c4.143 0 7.5-3.357 7.5-7.5s-3.357-7.5-7.5-7.5h-27.534c-4.143 0-7.5 3.357-7.5 7.5z" data-original="#000000" class="active-path" data-old_color="#000000" fill="#1C5F9D"/><path id="XMLID_232_" d="m178.063 230.963h90.981c4.143 0 7.5-3.357 7.5-7.5s-3.357-7.5-7.5-7.5h-90.981c-4.143 0-7.5 3.357-7.5 7.5s3.357 7.5 7.5 7.5z" data-original="#000000" class="active-path" data-old_color="#000000" fill="#1C5F9D"/><path id="XMLID_233_" d="m276.544 252.155c0-4.143-3.357-7.5-7.5-7.5h-90.981c-4.143 0-7.5 3.357-7.5 7.5s3.357 7.5 7.5 7.5h90.981c4.143 0 7.5-3.357 7.5-7.5z" data-original="#000000" class="active-path" data-old_color="#000000" fill="#1C5F9D"/><path id="XMLID_234_" d="m337.561 198.14h64.063c4.143 0 7.5-3.357 7.5-7.5s-3.357-7.5-7.5-7.5h-64.063c-4.143 0-7.5 3.357-7.5 7.5s3.357 7.5 7.5 7.5z" data-original="#000000" class="active-path" data-old_color="#000000" fill="#1C5F9D"/><path id="XMLID_235_" d="m337.561 168.339h64.063c4.143 0 7.5-3.357 7.5-7.5s-3.357-7.5-7.5-7.5h-64.063c-4.143 0-7.5 3.357-7.5 7.5s3.357 7.5 7.5 7.5z" data-original="#000000" class="active-path" data-old_color="#000000" fill="#1C5F9D"/><path id="XMLID_236_" d="m337.561 138.538h64.063c4.143 0 7.5-3.357 7.5-7.5s-3.357-7.5-7.5-7.5h-64.063c-4.143 0-7.5 3.357-7.5 7.5s3.357 7.5 7.5 7.5z" data-original="#000000" class="active-path" data-old_color="#000000" fill="#1C5F9D"/><path id="XMLID_237_" d="m337.561 108.737h64.063c4.143 0 7.5-3.357 7.5-7.5s-3.357-7.5-7.5-7.5h-64.063c-4.143 0-7.5 3.357-7.5 7.5s3.357 7.5 7.5 7.5z" data-original="#000000" class="active-path" data-old_color="#000000" fill="#1C5F9D"/><path id="XMLID_238_" d="m337.561 78.937h64.063c4.143 0 7.5-3.357 7.5-7.5s-3.357-7.5-7.5-7.5h-64.063c-4.143 0-7.5 3.357-7.5 7.5s3.357 7.5 7.5 7.5z" data-original="#000000" class="active-path" data-old_color="#000000" fill="#1C5F9D"/><path id="XMLID_239_" d="m187.022 279.116c-9.436 0-17.112 7.677-17.112 17.112v9.613c0 9.437 7.677 17.113 17.112 17.113h9.613c9.437 0 17.113-7.677 17.113-17.113v-9.613c0-9.436-7.677-17.112-17.113-17.112zm11.727 17.113v9.613c0 1.165-.948 2.113-2.113 2.113h-9.613c-1.165 0-2.112-.948-2.112-2.113v-9.613c0-1.165.947-2.112 2.112-2.112h9.613c1.165-.001 2.113.946 2.113 2.112z" data-original="#000000" class="active-path" data-old_color="#000000" fill="#1C5F9D"/><path id="XMLID_242_" d="m258.659 374.242v37.843c0 4.143 3.357 7.5 7.5 7.5s7.5-3.357 7.5-7.5v-37.843c0-4.143-3.357-7.5-7.5-7.5s-7.5 3.358-7.5 7.5z" data-original="#000000" class="active-path" data-old_color="#000000" fill="#1C5F9D"/><path id="XMLID_243_" d="m295.684 419.585c4.143 0 7.5-3.357 7.5-7.5v-37.843c0-4.143-3.357-7.5-7.5-7.5s-7.5 3.357-7.5 7.5v37.843c0 4.143 3.357 7.5 7.5 7.5z" data-original="#000000" class="active-path" data-old_color="#000000" fill="#1C5F9D"/></g> </svg>
