<?xml version="1.0"?>
<svg xmlns="http://www.w3.org/2000/svg" id="Layer_2" height="512px" viewBox="0 0 64 64" width="512px" data-name="Layer 2" class=""><g><path d="m49.29 20a2 2 0 0 1 2 2h2a4 4 0 0 0 -4-4h-.29v-2.43h-2v2.43h-.29a4 4 0 0 0 0 8h.29v4h-.29a2 2 0 0 1 -2-2h-2a4 4 0 0 0 4 4h.29v2.43h2v-2.43h.29a4 4 0 0 0 0-8h-.29v-4zm0 6a2 2 0 0 1 0 4h-.29v-4zm-2.29-2h-.29a2 2 0 0 1 0-4h.29z" data-original="#000000" class="active-path" data-old_color="#000000" fill="#1C5F9D"/><path d="m49 11.05v-3.05a5 5 0 0 0 -5-5h-32a5 5 0 0 0 -5 5v10a1 1 0 0 0 1 1h7v37a5 5 0 0 0 5 5h32a5 5 0 0 0 5-5v-6a1 1 0 0 0 -1.6-.8l-4.74 3.55-1.66-1.25v-12.5a14 14 0 0 0 0-27.9zm-40 5.95v-9a3 3 0 0 1 6 0v9zm42.26 37.8 3.74-2.8v4a3 3 0 0 1 -3 3h-28a5 5 0 0 0 1-3v-4l3.73 2.8a1 1 0 0 0 1.2 0l4.73-3.55 4.73 3.55a1 1 0 0 0 1.2 0l4.74-3.55 4.73 3.55a1 1 0 0 0 1.2 0zm-5.34-5.6a1 1 0 0 0 -1.19 0l-4.73 3.55-4.74-3.55a1 1 0 0 0 -1.2 0l-4.73 3.55-4.73-3.55a1 1 0 0 0 -1.05-.09 1 1 0 0 0 -.55.89v6a3 3 0 0 1 -6 0v-48a5.28 5.28 0 0 0 -1-3h28a3 3 0 0 1 3 3v3.05a14 14 0 0 0 0 27.95v11zm2.08-12.2a12 12 0 1 1 12-12 12 12 0 0 1 -12 12z" data-original="#000000" class="active-path" data-old_color="#000000" fill="#1C5F9D"/><path d="m22 42h20v2h-20z" data-original="#000000" class="active-path" data-old_color="#000000" fill="#1C5F9D"/><path d="m22 36h13v2h-13z" data-original="#000000" class="active-path" data-old_color="#000000" fill="#1C5F9D"/><path d="m22 30h11v2h-11z" data-original="#000000" class="active-path" data-old_color="#000000" fill="#1C5F9D"/><path d="m22 24h9v2h-9z" data-original="#000000" class="active-path" data-old_color="#000000" fill="#1C5F9D"/><path d="m22 18h9v2h-9z" data-original="#000000" class="active-path" data-old_color="#000000" fill="#1C5F9D"/><path d="m22 12h14v2h-14z" data-original="#000000" class="active-path" data-old_color="#000000" fill="#1C5F9D"/></g> </svg>
